<?xml version="1.0" encoding="UTF-8" standalone="no"?>
<svg
   version="1.0"
   width="139.000000pt"
   height="111.000000pt"
   viewBox="0 0 139.000000 111.000000"
   preserveAspectRatio="xMidYMid meet"
   id="svg9"
   sodipodi:docname="bee_invert.svg"
   inkscape:version="1.3 (0e150ed6c4, 2023-07-21)"
   xmlns:inkscape="http://www.inkscape.org/namespaces/inkscape"
   xmlns:sodipodi="http://sodipodi.sourceforge.net/DTD/sodipodi-0.dtd"
   xmlns="http://www.w3.org/2000/svg"
   xmlns:svg="http://www.w3.org/2000/svg">
  <defs
     id="defs9">
    <filter
       style="color-interpolation-filters:sRGB;"
       inkscape:label="Invert"
       id="filter10"
       x="0"
       y="0"
       width="1"
       height="1">
      <feColorMatrix
         type="hueRotate"
         values="180"
         result="color1"
         id="feColorMatrix9" />
      <feColorMatrix
         values="-1 0 0 0 1 0 -1 0 0 1 0 0 -1 0 1 -0.21 -0.72 -0.07 2 0 "
         result="color2"
         id="feColorMatrix10" />
    </filter>
  </defs>
  <sodipodi:namedview
     id="namedview9"
     pagecolor="#ffffff"
     bordercolor="#000000"
     borderopacity="0.25"
     inkscape:showpageshadow="2"
     inkscape:pageopacity="0.0"
     inkscape:pagecheckerboard="0"
     inkscape:deskcolor="#d1d1d1"
     inkscape:document-units="pt"
     inkscape:zoom="5.6283784"
     inkscape:cx="92.655462"
     inkscape:cy="74"
     inkscape:window-width="1920"
     inkscape:window-height="1032"
     inkscape:window-x="0"
     inkscape:window-y="24"
     inkscape:window-maximized="1"
     inkscape:current-layer="svg9" />
  <metadata
     id="metadata1">&#10;Created by potrace 1.10, written by Peter Selinger 2001-2011&#10;</metadata>
  <g
     transform="translate(0.000000,111.000000) scale(0.100000,-0.100000)"
     fill="#000000"
     stroke="none"
     id="g9"
     style="filter:url(#filter10)">
    <path
       d="M207 1083 c-12 -11 -8 -37 11 -70 11 -22 64 -64 160 -127 79 -53 160 -110 180 -126 66 -55 46 -10 -34 75 -44 45 -101 109 -129 141 -27 31 -68 70 -89 86 -36 26 -84 37 -99 21z m89 -41 c45 -33 171 -172 156 -172 -6 0 -13 4 -16 9 -3 5 -37 27 -75 50 -96 57 -131 88 -131 117 0 32 18 30 66 -4z"
       id="path1" />
    <path
       d="M1080 1062 c-25 -16 -79 -66 -120 -112 -41 -46 -104 -114 -139 -151 -34 -37 -61 -72 -60 -78 2 -6 34 13 71 43 37 29 118 85 180 124 130 81 155 102 164 139 16 61 -30 77 -96 35z m76 -7 c11 -28 -24 -61 -125 -118 -56 -31 -105 -57 -109 -57 -13 0 124 132 167 161 51 33 59 35 67 14z"
       id="path2" />
    <path
       d="M530 945 c-7 -8 -10 -22 -6 -30 6 -17 26 -21 26 -5 0 6 13 10 29 10 24 0 35 -9 60 -47 l32 -48 -26 -18 c-34 -26 -32 -41 5 -22 39 20 53 19 75 -5 27 -30 31 -16 5 19 -26 37 -21 60 21 96 33 27 58 32 77 13 19 -19 40 6 22 27 -32 38 -121 -2 -150 -69 l-19 -40 -7 29 c-9 39 -30 63 -76 86 -45 23 -52 23 -68 4z"
       id="path3" />
    <path
       d="M103 818 c-51 -23 -93 -47 -93 -54 0 -16 62 -71 137 -122 33 -23 75 -59 93 -82 17 -22 37 -40 43 -40 7 0 78 32 160 72 171 84 177 93 90 137 -132 66 -287 131 -311 130 -15 0 -69 -19 -119 -41z m137 12 c0 -6 -21 -20 -47 -30 -27 -11 -61 -26 -77 -33 l-28 -13 83 -54 c46 -30 94 -65 106 -79 l23 -24 105 49 c57 27 101 52 97 55 -4 3 -29 12 -57 18 -78 19 -206 73 -202 85 6 16 22 12 142 -38 156 -66 165 -70 165 -77 0 -7 -23 -18 -188 -97 l-83 -40 -9 23 c-5 13 -35 43 -67 66 -138 102 -153 113 -153 119 1 7 161 80 178 80 6 0 12 -5 12 -10z m-1 -66 c5 4 12 2 16 -4 3 -5 0 -10 -7 -10 -10 0 -10 -2 1 -9 7 -5 22 -6 34 -3 15 4 18 2 12 -8 -5 -9 -4 -11 4 -6 6 4 23 1 36 -8 13 -9 31 -16 39 -16 11 0 9 -7 -8 -25 -30 -32 -53 -32 -91 1 -16 14 -42 32 -56 40 -15 7 -30 21 -33 30 -8 21 14 37 31 23 7 -6 17 -8 22 -5z"
       id="path4" />
    <path
       d="M1050 822 c-99 -41 -224 -102 -251 -124 -9 -7 -18 -27 -22 -44 -5 -26 -2 -33 16 -42 12 -5 54 -40 94 -76 58 -54 80 -83 121 -163 27 -54 55 -115 62 -136 24 -77 80 -70 80 11 0 72 -59 157 -109 157 -7 0 -25 15 -39 33 l-25 33 52 -35 c51 -35 85 -47 164 -61 33 -5 37 -4 37 15 0 16 -6 20 -35 20 -76 0 -135 21 -198 71 -34 27 -92 72 -129 100 -38 28 -68 55 -68 59 0 4 56 -16 124 -45 68 -30 140 -58 161 -64 36 -10 38 -9 74 31 20 22 70 66 111 98 102 78 118 96 99 115 -19 19 -156 76 -194 81 -19 3 -64 -9 -125 -34z m190 -17 c38 -19 76 -35 85 -35 31 0 12 -21 -85 -95 -55 -42 -106 -85 -113 -96 -6 -10 -16 -19 -22 -19 -5 0 -66 24 -135 54 -69 30 -134 57 -145 61 -15 5 1 15 69 46 96 44 212 89 235 92 8 1 16 -3 18 -9 2 -7 -54 -31 -137 -60 -127 -44 -166 -64 -125 -64 8 0 59 -20 114 -44 l99 -44 29 30 c15 16 58 50 95 75 38 26 68 49 68 52 0 4 -24 17 -52 29 -29 13 -64 32 -78 42 -42 33 2 24 80 -15z m-46 -47 c-5 -7 0 -9 14 -6 15 4 19 2 15 -8 -3 -8 -11 -14 -18 -14 -6 0 -19 -8 -29 -19 -19 -20 -64 -20 -77 1 -7 10 -9 10 -9 0 0 -7 6 -15 14 -18 22 -8 27 -32 8 -30 -9 0 -16 -4 -15 -10 2 -9 -10 -8 -41 1 -24 8 -47 11 -51 7 -3 -3 -3 1 0 10 5 13 2 15 -17 11 -18 -4 -16 -1 10 16 18 12 37 19 42 16 14 -8 40 6 33 19 -3 6 -3 8 1 4 4 -3 31 2 59 12 63 22 70 23 61 8z m-95 -416 c26 -39 42 -132 23 -132 -6 0 -25 29 -41 64 -50 103 -36 152 18 68z"
       id="path5" />
    <path
       d="M636 749 c-18 -14 -25 -27 -21 -39 8 -26 -5 -70 -21 -70 -24 0 -117 -66 -159 -112 -72 -79 -174 -128 -240 -116 -21 4 -25 1 -25 -18 0 -21 3 -23 33 -17 17 3 47 12 66 19 19 8 35 13 37 11 2 -1 -10 -23 -26 -47 -34 -51 -46 -113 -31 -153 22 -56 59 -25 95 79 38 113 74 172 147 246 85 85 159 123 225 115 l45 -5 -4 39 c-8 80 -65 112 -121 68z m80 -24 c-3 -8 -2 -15 3 -15 4 0 8 -7 8 -15 0 -11 -4 -12 -14 -4 -10 9 -13 8 -13 -2 0 -8 -6 -5 -15 7 -13 18 -14 18 -15 1 0 -16 -2 -17 -15 -3 -19 19 -19 30 0 23 8 -4 17 -2 20 3 4 6 12 10 18 10 7 0 6 -4 -3 -10 -10 -7 -11 -10 -2 -10 7 0 15 7 18 15 4 8 8 15 11 15 3 0 3 -7 -1 -15z m-336 -293 c0 -15 -28 -47 -35 -40 -8 8 13 48 25 48 6 0 10 -4 10 -8z m-30 -58 c0 -17 -44 -130 -56 -143 -19 -21 -37 -3 -30 32 9 43 54 117 71 117 8 0 15 -3 15 -6z"
       id="path6" />
    <path
       d="M591 578 c-161 -80 -175 -354 -25 -500 57 -55 80 -67 133 -68 77 0 143 59 199 177 23 49 27 71 26 143 0 96 -14 136 -65 195 -66 75 -179 97 -268 53z m207 -54 c34 -7 92 -56 92 -77 0 -25 -92 -40 -204 -34 -108 6 -176 23 -176 43 0 6 16 26 35 43 34 30 39 31 129 31 51 0 107 -3 124 -6z m110 -191 c-3 -51 -6 -59 -33 -74 -76 -45 -255 -42 -339 4 -32 17 -43 31 -50 60 -5 20 -7 39 -4 42 3 4 34 -1 69 -10 94 -25 278 -17 317 13 15 11 31 21 35 21 4 1 7 -25 5 -56z m-368 -137 c72 -60 257 -54 333 12 26 23 21 4 -14 -54 -54 -88 -136 -124 -216 -93 -38 14 -100 75 -124 122 -23 43 -18 46 21 13z"
       id="path7" />
    <path
       d="M906 98 c-11 -44 -7 -71 10 -64 9 3 24 6 34 6 29 0 33 30 9 57 -28 29 -45 29 -53 1z"
       id="path8" />
    <path
       d="M425 90 c-22 -24 -13 -50 18 -50 13 0 29 -6 36 -12 11 -11 12 -6 6 27 -4 22 -9 43 -11 47 -9 14 -30 8 -49 -12z"
       id="path9" />
  </g>
</svg>
