<?xml version="1.0" standalone="no"?>
<!DOCTYPE svg PUBLIC "-//W3C//DTD SVG 20010904//EN"
 "http://www.w3.org/TR/2001/REC-SVG-20010904/DTD/svg10.dtd">
<svg version="1.0" xmlns="http://www.w3.org/2000/svg"
 width="229.000000pt" height="265.000000pt" viewBox="0 0 229.000000 265.000000"
 preserveAspectRatio="xMidYMid meet">
<metadata>
Created by potrace 1.10, written by Peter Selinger 2001-2011
</metadata>
<g transform="translate(0.000000,265.000000) scale(0.100000,-0.100000)"
fill="#000000" stroke="none">
<path d="M1010 2572 c-145 -72 -257 -125 -649 -306 -173 -80 -321 -152 -329
-159 -11 -12 -13 -133 -12 -763 1 -705 2 -750 19 -767 15 -16 334 -180 918
-474 l192 -97 158 82 c87 46 337 172 555 282 242 122 401 207 408 219 7 14 10
253 8 766 l-3 746 -23 17 c-12 9 -86 46 -165 82 -78 35 -317 147 -531 247
-214 101 -399 183 -410 182 -12 0 -73 -26 -136 -57z m551 -397 l414 -195 0
-652 0 -653 -412 -218 -413 -219 -157 83 c-87 45 -259 135 -383 200 -124 65
-241 127 -260 136 l-35 18 0 654 0 654 190 90 c480 226 630 296 636 297 3 0
192 -88 420 -195z"/>
<path d="M1035 2227 c-62 -35 -471 -227 -484 -227 -33 0 25 -33 295 -167 l295
-146 304 149 c167 82 304 152 304 156 1 4 -9 10 -21 13 -11 4 -135 61 -275
126 -140 66 -258 119 -264 119 -5 0 -9 -83 -9 -205 l0 -205 -35 0 -35 0 0 205
c0 231 2 226 -75 182z"/>
<path d="M400 1337 l0 -602 21 -13 c35 -22 569 -307 651 -348 l75 -37 244 128
c134 70 300 158 369 195 l125 68 3 602 2 603 -36 -6 c-20 -4 -188 -81 -373
-173 l-336 -167 -210 106 c-332 168 -498 247 -517 247 -17 0 -18 -34 -18 -603z
m336 287 c19 -9 63 -48 97 -87 34 -38 97 -106 140 -152 42 -45 77 -87 77 -93
0 -6 -48 23 -107 66 -60 43 -133 93 -163 112 -75 46 -118 87 -125 121 -12 52
17 63 81 33z m882 4 c19 -19 14 -54 -13 -87 -14 -16 -79 -63 -144 -104 -65
-41 -149 -98 -185 -127 -56 -44 -66 -56 -66 -83 l0 -32 -58 -1 c-75 0 -125
-27 -211 -112 -72 -71 -105 -126 -147 -245 -14 -40 -35 -80 -46 -90 -20 -16
-23 -17 -37 -2 -27 27 -18 107 18 162 16 26 29 48 28 50 -2 1 -21 -4 -42 -11
-81 -27 -95 -28 -95 -8 0 16 10 20 55 25 78 8 139 41 209 113 62 62 134 114
160 114 16 0 27 36 20 66 -4 15 2 27 22 43 35 28 69 27 95 -3 l20 -23 72 77
c40 42 101 109 136 149 63 72 152 141 181 141 9 0 21 -5 28 -12z m-570 -137
c46 -23 67 -47 76 -86 l7 -29 18 40 c20 45 57 73 105 81 37 6 61 -13 46 -37
-7 -12 -12 -12 -22 -2 -21 21 -49 13 -84 -22 -33 -33 -44 -69 -24 -81 5 -3 15
-16 21 -28 l12 -22 -25 23 c-28 26 -43 27 -80 8 -35 -18 -36 -12 -3 17 l26 22
-30 48 c-25 39 -36 47 -61 47 -16 0 -30 -4 -30 -10 0 -15 -17 -12 -24 5 -4 12
17 45 30 45 3 0 21 -9 42 -19z m-236 -132 c186 -84 228 -108 228 -127 0 -23
-287 -167 -312 -157 -9 4 -29 22 -43 41 -14 19 -53 53 -87 75 -76 52 -138 107
-138 123 0 16 176 94 212 95 14 1 77 -22 140 -50z m909 15 c37 -16 77 -36 90
-45 l24 -17 -20 -22 c-11 -12 -54 -49 -97 -81 -42 -32 -90 -75 -106 -95 -28
-33 -34 -36 -69 -31 -21 2 -95 30 -165 60 -71 30 -128 51 -128 46 0 -4 20 -22
45 -39 25 -17 71 -54 102 -81 89 -78 131 -99 212 -106 60 -5 71 -9 71 -24 0
-11 -1 -19 -3 -19 -37 0 -135 29 -175 51 -53 30 -54 30 -35 6 10 -14 21 -23
25 -21 14 9 59 -29 83 -71 41 -70 29 -168 -18 -149 -14 5 -47 61 -47 79 0 4
-21 48 -46 98 -49 98 -83 139 -180 218 -53 44 -60 54 -56 77 3 15 12 33 21 40
21 17 208 108 286 138 71 28 97 26 186 -12z m-484 -243 c50 -23 119 -107 130
-159 17 -78 8 -173 -20 -235 -73 -160 -187 -219 -283 -148 -60 44 -90 81 -121
146 -24 52 -28 72 -28 150 1 81 4 96 30 144 31 57 75 97 122 111 49 15 126 10
170 -9z m181 -494 c20 -24 3 -47 -34 -47 -37 0 -41 10 -24 55 8 21 13 24 28
16 10 -5 24 -16 30 -24z m-486 -16 c5 -18 8 -35 6 -37 -8 -8 -78 18 -78 28 0
18 33 49 49 46 8 -2 19 -18 23 -37z"/>
<path d="M682 1593 c3 -31 59 -77 160 -132 l63 -35 -42 50 c-70 83 -142 144
-171 144 -9 0 -12 -10 -10 -27z"/>
<path d="M1539 1591 c-45 -29 -170 -151 -155 -151 5 0 51 23 103 51 94 51 130
86 119 114 -8 21 -16 19 -67 -14z"/>
<path d="M800 969 c-7 -11 -9 -24 -5 -27 7 -7 35 25 35 40 0 16 -19 8 -30 -13z"/>
<path d="M745 891 c-30 -45 -43 -105 -25 -116 17 -11 34 12 58 81 26 73 26 74
7 74 -8 0 -26 -17 -40 -39z"/>
<path d="M585 1353 c-44 -20 -82 -39 -85 -41 -6 -4 27 -30 116 -92 40 -27 83
-63 96 -80 l25 -32 64 30 c128 59 199 95 199 101 0 7 -10 11 -165 77 -120 50
-136 54 -142 39 -4 -12 161 -80 220 -90 20 -4 39 -11 42 -15 2 -4 -28 -22 -68
-40 -40 -18 -87 -40 -105 -48 -31 -15 -33 -15 -65 15 -17 17 -65 52 -106 79
l-74 48 29 13 c16 7 50 22 77 33 26 10 47 24 47 30 0 17 -22 12 -105 -27z"/>
<path d="M1594 1382 c2 -4 36 -23 75 -42 39 -18 71 -37 71 -40 0 -4 -28 -26
-62 -50 -35 -24 -79 -58 -98 -75 l-35 -33 -100 44 c-55 24 -106 44 -112 44 -7
0 -13 4 -13 9 0 5 63 30 140 56 130 43 153 56 132 69 -14 8 -328 -122 -318
-132 8 -7 270 -122 279 -122 5 0 18 11 28 24 10 13 62 57 114 97 52 39 94 74
92 76 -3 2 -41 21 -86 43 -78 38 -118 50 -107 32z"/>
<path d="M1500 912 c0 -33 40 -122 65 -142 17 -14 18 -12 13 37 -7 78 -78 173
-78 105z"/>
<path d="M1008 1063 c-26 -17 -56 -59 -47 -68 3 -2 31 -11 64 -20 105 -27 315
-14 315 20 0 25 -42 65 -78 75 -61 17 -222 12 -254 -7z"/>
<path d="M1316 917 c-54 -28 -215 -35 -309 -13 -38 9 -70 16 -73 16 -8 0 -4
-52 6 -71 38 -71 276 -98 382 -43 36 18 40 29 36 86 l-3 45 -39 -20z"/>
<path d="M1325 760 c-12 -19 -85 -47 -142 -55 -55 -7 -159 14 -200 41 -27 17
-28 13 -9 -24 20 -37 85 -99 119 -111 92 -35 175 8 231 117 16 32 17 57 1 32z"/>
</g>
</svg>
